<?xml version="1.0" standalone="no"?><!DOCTYPE svg PUBLIC "-//W3C//DTD SVG 1.1//EN" "http://www.w3.org/Graphics/SVG/1.1/DTD/svg11.dtd"><svg t="1614769446787" class="icon" viewBox="0 0 1024 1024" version="1.1" xmlns="http://www.w3.org/2000/svg" p-id="1311" xmlns:xlink="http://www.w3.org/1999/xlink" width="64" height="64"><defs><style type="text/css"></style></defs><path d="M650.837333 461.824c-9.386667-7.424-21.589333-10.496-37.034666-9.130667-3.328-19.968-13.226667-37.802667-40.96-40.448-13.226667-1.28-23.210667 0.768-30.037334 3.242667-9.216-22.613333-26.965333-28.416-42.581333-28.416-13.994667 0-24.576 1.792-31.914667 3.669333v-79.872c0-29.696-17.408-45.994667-48.981333-45.994666s-48.981333 16.384-48.981333 45.994666v166.314667c-6.4-0.853333-14.421333-1.450667-20.565334-1.450667-25.6 0-43.605333 20.053333-47.018666 52.053334-0.170667 1.28-4.096 30.72-4.693334 69.717333-0.853333 53.248 8.96 77.056 29.866667 107.178667 28.074667 40.533333 84.394667 85.333333 86.784 87.210666 1.536 1.28 3.413333 1.877333 5.290667 1.877334a8.533333 8.533333 0 0 0 5.290666-15.189334c-0.597333-0.426667-56.746667-45.141333-83.285333-83.626666-19.2-27.733333-27.648-48.298667-26.794667-97.194667 0.597333-37.973333 4.522667-67.413333 4.608-67.925333 2.474667-23.210667 13.738667-37.034667 30.122667-37.034667 7.338667 0 15.957333 0.853333 20.565333 1.621333v118.869334c0 4.693333 3.84 8.533333 8.533334 8.533333s8.533333-3.84 8.533333-8.533333V310.784c0-20.053333 9.813333-28.928 31.914667-28.928s31.914667 8.96 31.914666 28.928v204.117333c0 4.693333 3.84 8.533333 8.533334 8.533334s8.533333-3.84 8.533333-8.533334V408.490667c5.461333-1.792 16.042667-4.352 31.914667-4.352 10.069333 0 22.698667 2.901333 28.501333 22.698666-0.256 1.877333 0.341333 3.754667 1.365333 5.461334 1.28 6.058667 1.962667 13.397333 1.962667 22.272v68.010666c0 4.693333 3.84 8.533333 8.533333 8.533334s8.533333-3.84 8.533334-8.533334v-68.010666c0-8.533333-0.682667-15.872-1.792-22.442667 4.608-1.877333 12.458667-3.84 23.893333-2.730667 16.725333 1.621333 27.050667 9.642667 27.050667 45.056v73.386667c0 4.693333 3.84 8.533333 8.533333 8.533333s8.533333-3.84 8.533333-8.533333v-73.386667c0-1.450667 0-2.986667-0.085333-4.522666 10.837333-0.853333 19.2 0.768 25.002667 5.461333 8.021333 6.4 12.544 18.944 13.738666 38.570667 2.304 36.352 3.072 55.808 3.072 99.413333 0 103.424-56.661333 164.266667-57.173333 164.864-3.242667 3.413333-3.157333 8.789333 0.256 12.032 1.621333 1.536 3.754667 2.389333 5.888 2.389333 2.218667 0 4.522667-0.853333 6.144-2.645333 2.56-2.645333 61.952-66.048 61.952-176.64 0-44.117333-0.768-63.744-3.072-100.522667-1.792-25.173333-8.277333-41.301333-20.394667-51.029333zM723.541333 264.277333l-31.658666-31.658666a8.4992 8.4992 0 1 0-12.032 12.032l17.066666 17.066666H568.234667l17.066666-17.066666a8.4992 8.4992 0 1 0-12.032-12.032l-31.658666 31.658666c-1.621333 1.621333-2.474667 3.754667-2.474667 6.058667s0.938667 4.437333 2.474667 6.058667l31.658666 31.658666c1.706667 1.706667 3.84 2.474667 6.058667 2.474667s4.352-0.853333 6.058667-2.474667a8.4992 8.4992 0 0 0 0-12.032l-17.066667-17.066666h128.682667l-17.066667 17.066666a8.4992 8.4992 0 0 0 6.058667 14.506667c2.218667 0 4.352-0.853333 6.058666-2.474667l31.658667-31.658666c3.157333-3.328 3.157333-8.789333-0.170667-12.117334z" fill="#0ba376" p-id="1312"></path></svg>