<?xml version="1.0" standalone="no"?><!DOCTYPE svg PUBLIC "-//W3C//DTD SVG 1.1//EN" "http://www.w3.org/Graphics/SVG/1.1/DTD/svg11.dtd"><svg t="1614750094089" class="icon" viewBox="0 0 1024 1024" version="1.1" xmlns="http://www.w3.org/2000/svg" p-id="8335" xmlns:xlink="http://www.w3.org/1999/xlink" width="64" height="64"><defs><style type="text/css"></style></defs><path d="M512 64c247.424 0 448 200.576 448 448S759.424 960 512 960 64 759.424 64 512 264.576 64 512 64z m0 64c-212.077 0-384 171.923-384 384s171.923 384 384 384 384-171.923 384-384-171.923-384-384-384z m104.284 141.363c74.637 0 135.363 60.726 135.363 135.363 0 52.558-30.834 100.8-78.545 122.887a31.842 31.842 0 0 1-13.405 2.966 31.958 31.958 0 0 1-29.026-18.542c-7.341-15.858-0.58-34.636 15.099-42.206l0.477-0.226c25.2-11.665 41.477-37.128 41.477-64.88 0-39.394-32.045-71.439-71.44-71.439-39 0-70.798 31.408-71.43 70.26l-0.01 1.18c0 0.879-0.043 1.792-0.128 2.78l-0.01 0.214V618.04h-0.362v2.5c0 74.638-60.726 135.363-135.362 135.363-74.637 0-135.363-60.725-135.363-135.362 0-52.586 30.856-100.838 78.601-122.915 16.02-7.41 35.015-0.427 42.425 15.596 7.335 15.862 0.565 34.637-15.118 42.2l-0.478 0.225c-25.217 11.66-41.507 37.127-41.507 64.894 0 39.394 32.045 71.439 71.44 71.439 39.394 0 71.439-32.045 71.439-71.44 0-1.603 0.12-3.205 0.358-4.791l0.028-0.185-0.001-208.338h0.116v-2.5c0-73.89 59.516-134.146 133.127-135.344l2.235-0.018z" p-id="8336" fill="#605ab0"></path></svg>